# xmcd CD database file
#
# Track frame offsets:
#	150
#	12884
#	27137
#	41204
#	56209
#	71308
#	85730
#	100659
#	116841
#	135131
#	151965
#	167831
#	181412
#
# Disc length: 2656 seconds
#
# Revision: 1
# Processed by: cddbd v1.4PL0 Copyright (c) Steve Scherf et al.
# Submitted via: CDex 1.51
#
DISCID=9f0a5e0d
DTITLE=Tchê Barbaridade - Lá vem o Tchê!
DYEAR=1900
DGENRE=Country
TTITLE0=Lá vem o Tchê
TTITLE1=Dia do gaúcho
TTITLE2=Vanera do povão
TTITLE3=Toque me toque
TTITLE4=Danço, danço, danço
TTITLE5=Tá bom demais
TTITLE6=Nas flores do jardim
TTITLE7=Pancada de vaneira
TTITLE8=Tantas horas
TTITLE9=Bailongo do Mato Grande
TTITLE10=Você virou saudade
TTITLE11=Na levada do brega - Surf music
TTITLE12=Dentro do bailão
EXTD=
EXTT0=
EXTT1=
EXTT2=
EXTT3=
EXTT4=
EXTT5=
EXTT6=
EXTT7=
EXTT8=
EXTT9=
EXTT10=
EXTT11=
EXTT12=
PLAYORDER=
